<?xml version="1.0" encoding="UTF-8" standalone="no"?>
<svg width="123" height="40" viewBox="0 0 123 40" fill="none" xmlns="http://www.w3.org/2000/svg">
	<path d="M21.6522 1.85257C19.0016 1.85257 16.6358 3.06881 15.0801 4.9738C13.5235 3.05451 11.149 1.82715 8.48729 1.82715C3.80016 1.82715 0 5.63236 0 10.3257C0 15.0191 3.80016 18.8243 8.48729 18.8243C11.1371 18.8243 13.5029 17.608 15.0594 15.7023C16.6152 17.6216 18.9905 18.8489 21.6522 18.8489C26.3393 18.8489 30.1395 15.0437 30.1395 10.3503C30.1395 5.65699 26.3393 1.85257 21.6522 1.85257ZM21.6569 18.207C19.1381 18.207 16.8968 17.0178 15.4617 15.17C15.3276 14.996 15.1998 14.8173 15.0816 14.633C14.9047 14.8554 14.6564 15.1652 14.6564 15.1652C13.2212 16.9987 10.9887 18.1768 8.48174 18.1768C6.79507 18.1768 5.23296 17.6438 3.95407 16.7366L9.28858 11.3362L7.65824 9.50351L2.19997 15.0262C1.21938 13.7155 0.638649 12.0877 0.638649 10.3241C0.638649 5.98746 4.15003 2.47141 8.48174 2.47141C11.0006 2.47141 13.2419 3.66064 14.677 5.50923L14.6778 5.50843L15.0126 5.91358L15.0856 6.03671C15.2038 5.85718 15.3498 5.68161 15.4823 5.5132C16.9183 3.67971 19.15 2.5016 21.6577 2.5016C23.3444 2.5016 24.9065 3.03465 26.1846 3.94186L20.8501 9.34224L22.4797 11.1749L27.9387 5.65222C28.9193 6.96299 29.4992 8.59153 29.4992 10.3551C29.4992 14.691 25.9879 18.207 21.6569 18.207Z" fill="#0050D7"/>
	<path d="M46.1221 18.7152V3.62305H48.1229V9.62241H48.165C48.9234 8.45145 50.0603 7.90808 51.5986 7.90808C54.3579 7.90808 55.221 9.72727 55.221 11.6084V18.7152H53.2202V12.5069C53.2202 10.6671 52.7355 9.47545 50.8608 9.43414C50.0603 9.41348 48.8385 10.0196 48.4593 10.8974C47.996 11.985 48.1221 12.7373 48.1221 13.3228V18.716H46.1221V18.7152Z" fill="#0050D7"/>
	<path d="M64.3848 12.2353C64.3848 10.4161 64.2793 9.35005 62.1523 9.35005C61.1415 9.35005 60.1935 9.93553 60.1721 11.0223H58.0657C58.1712 8.72327 59.9825 7.9082 62.0674 7.9082C64.2372 7.9082 66.3856 8.55565 66.3856 11.4822V16.4989C66.3856 16.9589 66.4062 17.8367 66.4689 18.7145H65.121C64.9322 18.7145 64.5744 18.8194 64.5522 18.5684C64.5101 18.0885 64.4681 17.6278 64.4467 17.1472H64.4046C63.7517 18.4643 62.572 19.0283 61.1185 19.0283C59.2859 19.0283 57.4326 18.0877 57.4326 16.039C57.4326 13.0917 60.065 12.2353 62.572 12.2353H64.3848ZM62.3831 13.6144C61.1614 13.6772 59.5398 14.1157 59.5398 15.6418C59.5398 16.9374 60.4458 17.5857 61.6247 17.5857C63.9833 17.5857 64.426 15.5583 64.384 13.6144H62.3831Z" fill="#0050D7"/>
	<path d="M71.2928 3.62305H69.292V18.7144H71.2928V3.62305Z" fill="#0050D7"/>
	<path d="M78.2237 7.9082C80.2246 7.9082 82.4785 8.74471 82.3309 11.1271H80.2254C80.3087 9.78936 79.2773 9.35085 78.119 9.35085C77.0448 9.35085 76.1816 9.85212 76.1816 11.0223C76.1816 12.1932 77.9929 12.2766 78.7513 12.507C80.5419 13.0925 82.6054 13.3014 82.6054 15.6632C82.6054 18.2339 80.077 19.0283 77.908 19.0283C75.6961 19.0283 73.8428 18.025 73.8635 15.6005H75.9698C76.0119 16.8961 76.8964 17.5865 78.1182 17.5865C79.2971 17.5865 80.4983 17.1265 80.4983 15.7681C80.4983 13.427 74.0737 15.1826 74.0737 11.0858C74.0745 8.89009 76.307 7.9082 78.2237 7.9082Z" fill="#0050D7"/>
	<path d="M85.447 8.22206V5.985L87.4478 5.35742V8.22126L89.8913 8.1585V9.64246L87.4478 9.6218V16.3941C87.4478 17.1464 88.0373 17.5023 88.7537 17.5023C89.0694 17.5023 89.4915 17.461 89.8072 17.3768V18.9021C89.3439 18.9235 88.9012 19.0276 88.4379 19.0276C87.9532 19.0276 87.5739 19.0069 87.09 18.9235C86.7742 18.8608 86.2467 18.6931 85.9103 18.2332C85.5525 17.7319 85.447 17.6898 85.447 16.2893V9.62101L83.6357 9.64166V8.15771L85.447 8.22206Z" fill="#0050D7"/>
	<path d="M94.378 18.7155H92.3779V8.22216H94.378V10.2495H94.4208C94.7151 8.80684 96.0631 8.0752 97.5165 8.0752C97.7688 8.0752 97.9798 8.09585 98.2115 8.09585V9.9778C97.9377 9.87294 97.622 9.87294 97.3483 9.87294C94.8199 9.95715 94.378 11.2949 94.378 13.5105V18.7155Z" fill="#0050D7"/>
	<path d="M107.353 8.22168H109.354V18.7142H107.395V17.1675H107.352C106.552 18.4846 105.204 19.028 103.73 19.028C101.519 19.028 100.254 17.3558 100.254 15.245V8.22168H102.255V14.43C102.255 16.2484 102.676 17.5862 104.593 17.5862C105.414 17.5862 106.53 17.1683 106.952 16.0815C107.331 15.0989 107.352 13.8659 107.352 13.6149V8.22168H107.353Z" fill="#0050D7"/>
	<path d="M112.578 10.1022C112.557 9.47539 112.515 8.8486 112.473 8.22102H114.516L114.578 9.89245H114.621C115.232 8.38784 116.558 7.90723 118.223 7.90723C121.192 7.90723 122.667 10.6249 122.667 13.4673C122.667 16.1643 121.403 19.0273 117.591 19.0273C116.728 19.0273 115.337 18.6095 114.642 17.5219H114.579V22.7269H112.579V10.1022H112.578ZM117.57 9.35066C115.295 9.35066 114.579 11.5663 114.579 13.4689C114.579 15.4334 115.148 17.5871 117.38 17.5871C119.824 17.5871 120.561 15.4342 120.561 13.4689C120.56 11.5035 119.971 9.35066 117.57 9.35066Z" fill="#0050D7"/>
	<path d="M27.4995 29.1934L23.7715 39.6867H21.4962L19.032 31.0539H18.99L16.2521 39.6867H13.9141L10.417 29.1934H12.5868L15.1351 37.6379H15.1771L17.8102 29.1934H20.4013L22.7814 37.4711H22.8234L25.4566 29.1934H27.4995Z" fill="#0050D7"/>
	<path d="M35.3771 33.207C35.3771 31.3886 35.2724 30.3225 33.1446 30.3225C32.1339 30.3225 31.1859 30.9072 31.1644 31.994H29.0581C29.1636 29.6957 30.9748 28.8799 33.0598 28.8799C35.2288 28.8799 37.3772 29.5273 37.3772 32.4539V37.4706C37.3772 37.9306 37.3978 38.8084 37.4613 39.6862H36.1134C35.9238 39.6862 35.566 39.7911 35.5445 39.5392C35.5025 39.0594 35.4604 38.5987 35.4398 38.118H35.3978C34.7448 39.4352 33.5651 39.9992 32.1117 39.9992C30.2791 39.9992 28.4258 39.0586 28.4258 37.0098C28.4258 34.0626 31.0589 33.2054 33.5651 33.2054H35.3771V33.207ZM33.3771 34.5861C32.1545 34.6497 30.5329 35.0882 30.5329 36.6142C30.5329 37.9107 31.4389 38.5581 32.6179 38.5581C34.9773 38.5581 35.4192 36.53 35.3771 34.5861H33.3771Z" fill="#0050D7"/>
	<path d="M51.1319 32.5588C51.0264 31.2425 50.3941 30.3217 48.9621 30.3217C47.0453 30.3217 46.3083 31.9725 46.3083 34.4399C46.3083 36.9058 47.0453 38.5581 48.9621 38.5581C50.2894 38.5581 51.1105 37.701 51.216 36.1956H53.2168C53.0486 38.5581 51.2795 40 48.9407 40C45.5499 40 44.2012 37.6168 44.2012 34.5234C44.2012 31.4506 45.7601 28.8799 49.1089 28.8799C51.3413 28.8799 53.0264 30.2804 53.1319 32.5588H51.1319Z" fill="#0050D7"/>
	<path d="M55.3242 39.6869V24.5947H57.3251V30.5941H57.3671C58.1255 29.4231 59.2624 28.8806 60.8007 28.8806C63.56 28.8806 64.424 30.699 64.424 32.5801V39.6869H62.4231V33.4786C62.4231 31.6395 61.9384 30.4479 60.0637 30.4066C59.2632 30.386 58.0415 30.9913 57.6622 31.8691C57.1989 32.9567 57.3251 33.709 57.3251 34.2944V39.6877H55.3242V39.6869Z" fill="#0050D7"/>
	<path d="M68.8464 34.8165C68.6996 36.6555 69.4573 38.5581 71.5002 38.5581C73.0591 38.5581 73.8382 37.9512 74.0698 36.426H76.1762C75.8604 38.8084 74.0064 40 71.4787 40C68.088 40 66.7393 37.6168 66.7393 34.5234C66.7393 31.4506 68.2982 28.8799 71.6477 28.8799C74.8069 28.9426 76.3023 30.9279 76.3023 33.833V34.8157H68.8464V34.8165ZM74.196 33.4366C74.2388 31.681 73.4383 30.3225 71.5002 30.3225C69.8365 30.3225 68.8464 31.7231 68.8464 33.4366H74.196Z" fill="#0050D7"/>
	<path d="M80.7889 39.6874H78.7881V29.194H80.7889V31.2221H80.831C81.1261 29.7795 82.474 29.0479 83.9274 29.0479C84.1797 29.0479 84.3907 29.0685 84.6224 29.0685V30.9497C84.3487 30.8448 84.0329 30.8448 83.7584 30.8448C81.2308 30.9282 80.7889 32.2668 80.7889 34.4824V39.6874Z" fill="#0050D7"/>
	<path d="M41.9109 0H39.9688V39.6926H41.9109V0Z" fill="#0050D7"/>
</svg>
